P2
15 15
10
10 10 10 10 0 0 0 0 0 10 10 10 10 10 10 
10 10 0 0 7 7 7 7 0 10 10 10 10 10 10 
10 0 0 10 10 10 10 0 10 10 10 10 10 10 10 
10 0 10 10 10 10 10 0 10 10 10 10 10 10 10 
0 7 10 10 10 10 0 10 10 10 10 10 10 10 10 
0 7 10 10 10 10 0 10 10 0 0 0 0 10 10 
0 7 10 10 10 10 0 10 0 0 10 10 10 0 10 
0 7 10 10 10 10 10 0 0 10 10 10 10 10 0 
0 7 10 10 10 10 10 10 10 10 10 10 10 10 0 
0 0 10 10 10 10 10 10 10 10 10 10 10 10 0 
10 0 10 10 10 10 10 10 10 10 10 8 10 10 0 
10 10 0 10 10 10 0 0 0 10 10 10 10 0 10 
10 10 10 0 0 0 10 10 0 5 5 0 0 10 10 
10 10 10 10 10 10 10 10 0 0 5 0 10 10 10 
10 10 10 10 10 10 10 10 10 0 0 0 10 10 10 
